<?xml version="1.0" encoding="UTF-8" standalone="no"?>
<!-- Created with Inkscape (http://www.inkscape.org/) -->

<svg
   xmlns:dc="http://purl.org/dc/elements/1.1/"
   xmlns:cc="http://creativecommons.org/ns#"
   xmlns:rdf="http://www.w3.org/1999/02/22-rdf-syntax-ns#"
   xmlns:svg="http://www.w3.org/2000/svg"
   xmlns="http://www.w3.org/2000/svg"
   xmlns:sodipodi="http://sodipodi.sourceforge.net/DTD/sodipodi-0.dtd"
   xmlns:inkscape="http://www.inkscape.org/namespaces/inkscape"
   width="512pt"
   height="512pt"
   viewBox="0 0 640.00002 639.99999"
   id="svg2"
   version="1.1"
   inkscape:version="0.91 r13725"
   sodipodi:docname="cardio.svg">
  <defs
     id="defs4" />
  <sodipodi:namedview
     id="base"
     pagecolor="#ffffff"
     bordercolor="#666666"
     borderopacity="1.0"
     inkscape:pageopacity="0.0"
     inkscape:pageshadow="2"
     inkscape:zoom="0.7"
     inkscape:cx="-188.22551"
     inkscape:cy="141.07421"
     inkscape:document-units="px"
     inkscape:current-layer="layer1"
     showgrid="false"
     units="pt"
     inkscape:window-width="1920"
     inkscape:window-height="1017"
     inkscape:window-x="-8"
     inkscape:window-y="-8"
     inkscape:window-maximized="1" />
  <metadata
     id="metadata7">
    <rdf:RDF>
      <cc:Work
         rdf:about="">
        <dc:format>image/svg+xml</dc:format>
        <dc:type
           rdf:resource="http://purl.org/dc/dcmitype/StillImage" />
        <dc:title></dc:title>
      </cc:Work>
    </rdf:RDF>
  </metadata>
  <g
     inkscape:label="Layer 1"
     inkscape:groupmode="layer"
     id="layer1"
     transform="translate(0,-412.36222)">
    <g
       id="g4152"
       transform="translate(-831.10911,508.73558)"
       clip-path="none"
       inkscape:transform-center-x="75.714288"
       inkscape:transform-center-y="15.714286" />
    <g
       id="Black_Bg"
       transform="translate(-940.34566,482.58633)" />
    <g
       id="g4912"
       transform="matrix(21.958482,0,0,21.958482,1.2045402,413.558)">
      <g
         id="g4868">
        <g
           id="g4870">
          <path
             id="path4872"
             d="M 28.675,13.298 C 28.003,5.799 18.779,8.006 17.3,12.273 16.58,10.202 14.037,8.628 11.534,8.402 l -0.112,0.9 c 0.166,0.238 0.256,0.519 0.256,0.811 0,2.654 -1.938,4.903 -4.508,5.36 -0.146,0.791 -0.427,1.445 -0.768,2.017 1.273,4.101 4.713,7.179 7.405,9.041 1.292,-1.038 1.902,-2.785 2.178,-4.646 -1.368,-0.529 -2.342,-1.849 -2.342,-3.402 0,-2.02 1.637,-3.656 3.656,-3.656 2.019,0 3.655,1.637 3.655,3.656 0,1.726 -1.201,3.164 -2.812,3.548 -0.409,2.735 -1.303,4.548 -2.432,5.716 0.951,0.553 1.587,0.854 1.587,0.854 0,0 12.242,-5.656 11.378,-15.303 z"
             inkscape:connector-curvature="0" />
          <path
             id="path4874"
             d="m 19.493,18.48 c 0,-1.211 -0.982,-2.194 -2.192,-2.194 -1.212,0 -2.194,0.981 -2.194,2.194 0,1.062 0.757,1.949 1.763,2.149 -0.227,3.111 -1.269,7.603 -6.072,7.603 -0.525,0 -1.068,0.018 -1.615,0.035 -3.938,0.135 -7.661,0.254 -8.125,-5.582 -0.122,-1.523 0.884,-2.219 2.155,-3.099 1.381,-0.954 3.053,-2.144 3.314,-4.771 2.461,-0.164 4.42,-2.199 4.42,-4.702 0,-0.235 -0.118,-0.435 -0.29,-0.569 L 11.581,2.153 C 11.599,2 11.519,1.851 11.382,1.781 L 10.199,1.19 C 10.203,1.161 10.217,1.137 10.217,1.107 10.217,0.496 9.72,0 9.111,0 8.5,0 8.004,0.496 8.004,1.107 c 0,0.612 0.495,1.106 1.106,1.106 0.317,0 0.598,-0.137 0.799,-0.351 L 10.823,2.32 9.936,9.439 c -0.265,0.11 -0.45,0.371 -0.45,0.674 0,1.804 -1.468,3.271 -3.271,3.271 -1.803,0 -3.271,-1.467 -3.271,-3.271 C 2.944,9.81 2.76,9.551 2.498,9.439 L 1.606,2.32 2.518,1.863 C 2.72,2.076 3.001,2.213 3.32,2.213 3.93,2.213 4.425,1.719 4.425,1.107 4.426,0.496 3.931,0 3.321,0 2.708,0 2.212,0.496 2.212,1.107 c 0,0.03 0.015,0.055 0.018,0.084 L 1.05,1.781 C 0.91,1.85 0.831,1.999 0.85,2.153 l 0.926,7.389 c -0.174,0.133 -0.295,0.334 -0.295,0.571 0,2.468 1.906,4.479 4.319,4.692 -0.242,2.25 -1.636,3.237 -3.002,4.181 -1.289,0.892 -2.624,1.814 -2.468,3.759 0.445,5.606 3.781,6.292 7.197,6.292 0.562,0 1.127,-0.02 1.679,-0.036 0.541,-0.019 1.075,-0.036 1.593,-0.036 4.054,0 6.318,-2.806 6.772,-8.316 1.08,-0.135 1.922,-1.049 1.922,-2.169 z"
             inkscape:connector-curvature="0" />
        </g>
      </g>
      <g
         id="g4876" />
      <g
         id="g4878" />
      <g
         id="g4880" />
      <g
         id="g4882" />
      <g
         id="g4884" />
      <g
         id="g4886" />
      <g
         id="g4888" />
      <g
         id="g4890" />
      <g
         id="g4892" />
      <g
         id="g4894" />
      <g
         id="g4896" />
      <g
         id="g4898" />
      <g
         id="g4900" />
      <g
         id="g4902" />
      <g
         id="g4904" />
    </g>
  </g>
</svg>
