<?xml version="1.0" encoding="UTF-8" standalone="no"?>
<!-- Created with Inkscape (http://www.inkscape.org/) -->

<svg
   xmlns:dc="http://purl.org/dc/elements/1.1/"
   xmlns:cc="http://creativecommons.org/ns#"
   xmlns:rdf="http://www.w3.org/1999/02/22-rdf-syntax-ns#"
   xmlns:svg="http://www.w3.org/2000/svg"
   xmlns="http://www.w3.org/2000/svg"
   xmlns:sodipodi="http://sodipodi.sourceforge.net/DTD/sodipodi-0.dtd"
   xmlns:inkscape="http://www.inkscape.org/namespaces/inkscape"
   width="512pt"
   height="512pt"
   viewBox="0 0 640.00002 639.99999"
   id="svg2"
   version="1.1"
   inkscape:version="0.91 r13725"
   sodipodi:docname="echo.svg">
  <defs
     id="defs4" />
  <sodipodi:namedview
     id="base"
     pagecolor="#ffffff"
     bordercolor="#666666"
     borderopacity="1.0"
     inkscape:pageopacity="0.0"
     inkscape:pageshadow="2"
     inkscape:zoom="0.7"
     inkscape:cx="-188.22551"
     inkscape:cy="141.07421"
     inkscape:document-units="px"
     inkscape:current-layer="layer1"
     showgrid="false"
     units="pt"
     inkscape:window-width="1920"
     inkscape:window-height="1017"
     inkscape:window-x="-8"
     inkscape:window-y="-8"
     inkscape:window-maximized="1" />
  <metadata
     id="metadata7">
    <rdf:RDF>
      <cc:Work
         rdf:about="">
        <dc:format>image/svg+xml</dc:format>
        <dc:type
           rdf:resource="http://purl.org/dc/dcmitype/StillImage" />
        <dc:title></dc:title>
      </cc:Work>
    </rdf:RDF>
  </metadata>
  <g
     inkscape:label="Layer 1"
     inkscape:groupmode="layer"
     id="layer1"
     transform="translate(0,-412.36222)">
    <g
       id="g4152"
       transform="translate(-831.10911,508.73558)"
       clip-path="none"
       inkscape:transform-center-x="75.714288"
       inkscape:transform-center-y="15.714286" />
    <g
       id="Black_Bg"
       transform="translate(-940.34566,482.58633)" />
    <g
       id="g3370"
       transform="matrix(2.0525058,0,0,2.0525058,-0.37585814,-195.0742)">
      <g
         id="g3372">
        <path
           id="path3374"
           d="m 276.938,392.116 c -5.065,1.403 -7.128,3.08 -10.976,5.867 -3.56,2.576 -6.797,5.201 -9.84,9.402 -2.172,2.998 -2.982,4.762 -1.982,7.834 1.136,3.494 5.904,5.867 8.134,6.896 7.013,3.232 14.583,5.078 22.349,4.393 6.737,-0.592 12.305,-4.141 16.272,-9.611 3.588,-4.947 3.226,-11.49 1.278,-15.195 -2.895,-5.516 -6.068,-8.054 -8.711,-8.955 -4.931,-1.684 -10.793,-2.218 -16.524,-0.631 z"
           inkscape:connector-curvature="0" />
      </g>
      <g
         id="g3376">
        <path
           id="path3378"
           d="m 212.065,393.778 c -22.17,-15.596 -57.807,-1.379 -83.847,9.729 -8.649,3.689 -15.371,8.889 -23.735,13.736 -9.238,5.352 -17.154,11.906 -25.421,18.75 -2.882,2.387 -6.059,5.168 -9.296,7.795 -13.663,11.086 -28.485,17.4 -42.763,28.117 -3.538,2.654 -8.317,6.58 -11.501,9.648 -4.398,4.24 -7.476,7.348 -10.393,12.914 -2.354,4.492 -3.785,9.387 -3.101,14.787 1.046,8.254 6.194,13.859 13.584,18.01 20.275,11.391 59.092,22.225 92.156,29.146 12.645,2.648 24.93,5.506 37.311,5.918 15.128,0.504 30.574,-2.146 44.836,-7.691 3.635,-1.414 6.835,-3.207 10.366,-3.797 21.286,-3.562 35.754,-14.633 53.822,-24.172 4.898,-3.48 22.041,-5.93 39.694,-21.766 2.968,-2.662 10.06,0.754 10.06,0.754 l 8.25,-16.498 c 0,0 -9.504,-3.494 -9.201,-6.734 1.596,-17.111 -2.622,-22.811 -1.631,-29.891 0.521,-3.719 5.676,-6.684 5.676,-6.684 l -8.766,-14.436 c 0,0 -5.285,4.639 -9.557,4.184 -5.095,-0.545 -10.164,-6.504 -17.545,-8.518 -9.186,-2.508 -10.84,-3.127 -18.758,-4.123 -2.352,-0.295 -5.242,-1.514 -5.764,-3.518 -4.131,-15.852 -31.714,-23.718 -34.476,-25.66 z"
           inkscape:connector-curvature="0" />
      </g>
      <g
         id="g3380">
        <path
           id="path3382"
           d="m 211.034,392.747 c -22.17,-15.597 -57.807,-1.379 -83.847,9.729 -8.651,3.689 -15.371,8.889 -23.735,13.734 -9.238,5.354 -17.155,11.906 -25.421,18.752 -2.882,2.385 -6.058,5.168 -9.296,7.795 -13.663,11.084 -28.485,17.4 -42.763,28.117 -3.538,2.654 -8.317,6.58 -11.501,9.648 -4.398,4.238 -7.476,7.346 -10.393,12.914 -2.354,4.49 -3.785,9.385 -3.101,14.785 1.046,8.254 6.194,13.859 13.584,18.01 20.275,11.391 59.092,22.225 92.156,29.146 12.646,2.648 24.93,5.504 37.311,5.918 15.129,0.502 30.575,-2.146 44.836,-7.691 3.634,-1.414 6.836,-3.207 10.367,-3.797 21.285,-3.562 35.753,-14.631 53.822,-24.174 4.897,-3.479 22.04,-5.928 39.694,-21.764 2.967,-2.662 10.059,0.754 10.059,0.754 l 8.25,-16.498 c 0,0 -9.502,-3.494 -9.2,-6.734 1.595,-17.111 -2.623,-22.811 -1.632,-29.891 0.521,-3.719 5.677,-6.684 5.677,-6.684 l -8.765,-14.436 c 0,0 -5.284,4.641 -9.557,4.184 -5.096,-0.545 -10.164,-6.504 -17.545,-8.52 -9.187,-2.506 -10.841,-3.127 -18.759,-4.123 -2.351,-0.295 -5.241,-1.514 -5.765,-3.518 -4.132,-15.848 -31.715,-23.714 -34.476,-25.656 z"
           inkscape:connector-curvature="0"
           style="fill:#e6e6e6;stroke:#000000;stroke-width:1.61240005" />
      </g>
      <g
         id="g3384">
        <path
           id="path3386"
           d="m 290.433,387.075 c 0,0 -7.745,-1.666 -11.839,-0.925 -3.978,0.722 -6.979,3.251 -9.991,5.504 -10.798,8.077 -21.221,20.296 -26.505,28.159 -1.929,2.869 -6.187,7.992 -3.352,10.055 13.534,1.031 27.326,-0.646 42.319,10.641 3.998,3.008 10.013,9.465 12.794,16.732 1.658,4.33 3.146,7.428 3.452,13.602 0.375,7.611 -0.108,14.998 -3.656,21.795 -3.093,5.93 -6.058,8.637 -10.516,12.15 -2.195,1.73 -19.433,13.385 -29.009,22.332 -6.848,6.4 -14.202,11.998 -23.408,14.469 -3.487,0.938 -5.976,3.852 -8.951,6.232 -2.146,1.719 -4.748,2.488 -7.213,3.518 -4.181,1.742 -8.703,1.793 -13.278,2.527 -13.259,2.125 -24.979,7.893 -38.198,8.412 -8.634,0.34 -16.924,0.4 -25.771,-1.477 -6.277,-1.33 -9.156,-2.041 -17.95,-4.402 -4.107,-1.104 -6.158,-1.635 -10.917,-3.049 -2.255,-0.67 -13.409,-3.996 -16.508,-4.387 C 68.508,546.018 54.17,539.555 31.907,530.838 20.812,526.494 9.901,519.133 7.813,506.766 c -1.408,-8.342 4.473,-15.756 9.126,-22.1 4.363,-5.949 23.709,-18.625 34.583,-24.859 10.83,-6.211 20.821,-12.43 29.252,-21.486 5.902,-6.34 12.184,-11.281 18.629,-17.004 8.722,-7.744 17.293,-12.461 28.691,-16.863 14.627,-5.65 26.126,-9.186 40.125,-8.883 6.467,0.141 12.912,2.588 18.786,4.875 2.412,0.938 6.237,2.164 8.637,2.873 2.556,0.752 5.015,-0.605 6.519,-2.91 3.799,-5.818 6.767,-8.545 10.701,-14.311 8.742,-12.816 11.763,-15.443 22.792,-25.447 18.045,-16.369 42.124,-23.201 67.153,-13.275 l -12.374,39.699 z"
           inkscape:connector-curvature="0" />
      </g>
      <path
         id="path3388"
         d="M 288.628,385.786"
         inkscape:connector-curvature="0" />
      <g
         id="g3390">
        <path
           id="path3392"
           d="m 289.401,386.043 c 0,0 -7.745,-1.666 -11.838,-0.924 -3.978,0.721 -6.979,3.25 -9.991,5.504 -10.799,8.078 -21.222,20.297 -26.506,28.16 -1.929,2.869 -6.187,7.99 -3.351,10.053 13.535,1.031 27.326,-0.645 42.318,10.641 4,3.01 10.012,9.467 12.795,16.732 1.657,4.33 3.146,7.428 3.451,13.604 0.375,7.611 -0.109,14.998 -3.656,21.795 -3.093,5.93 -6.058,8.637 -10.516,12.15 -2.195,1.732 -19.434,13.385 -29.008,22.332 -6.848,6.4 -14.203,11.998 -23.409,14.469 -3.487,0.936 -5.976,3.852 -8.951,6.232 -2.147,1.717 -4.748,2.488 -7.214,3.516 -4.18,1.742 -8.702,1.795 -13.277,2.527 -13.26,2.125 -24.979,7.893 -38.198,8.412 -8.634,0.34 -16.924,0.4 -25.771,-1.477 -6.277,-1.33 -9.156,-2.041 -17.949,-4.402 -4.107,-1.104 -6.158,-1.635 -10.917,-3.047 -2.256,-0.67 -13.409,-3.998 -16.509,-4.389 C 67.477,544.988 53.138,538.523 30.875,529.806 19.78,525.463 8.87,518.102 6.782,505.735 c -1.409,-8.344 4.472,-15.756 9.125,-22.1 4.364,-5.949 23.709,-18.625 34.583,-24.859 10.829,-6.211 20.82,-12.43 29.251,-21.486 5.902,-6.34 12.185,-11.281 18.629,-17.004 8.723,-7.746 17.294,-12.461 28.69,-16.863 14.627,-5.65 26.127,-9.186 40.126,-8.883 6.467,0.139 12.911,2.588 18.786,4.875 2.412,0.938 6.237,2.164 8.637,2.871 2.555,0.754 5.013,-0.604 6.519,-2.91 3.798,-5.817 6.767,-8.543 10.7,-14.31 8.742,-12.815 11.763,-15.442 22.792,-25.446 18.045,-16.371 42.124,-23.203 67.154,-13.277 l -12.373,39.7 z"
           inkscape:connector-curvature="0"
           style="fill:#b3b3b3;stroke:#000000;stroke-width:0.96749997" />
      </g>
      <g
         id="g3394">
        <path
           id="path3396"
           d="m 165.921,408.729 c -1.839,-0.467 -2.642,-0.064 -3.689,0.037 -1.591,0.154 -3.084,0.721 -4.658,1.023 -0.478,0.092 -1.048,0.418 -1.594,0.543 -2.163,0.498 -4.378,-0.057 -6.379,0.715 -3.827,1.475 -7.786,2.508 -11.89,2.891 -2.597,0.24 -3.761,2.961 -5.984,4.398 -1.662,1.076 -3.739,0.58 -5.237,1.561 -0.921,0.604 -1.548,1.98 -2.54,2.455 -1.678,0.801 -3.838,0.379 -5.516,1.33 -0.888,0.504 -1.043,1.744 -1.668,2.674 -1.118,1.662 -3.01,1.75 -4.84,2.141 -0.841,0.18 -1.278,0.896 -1.771,1.535 -0.875,1.129 -1.57,2.094 -2.611,3.092 -1.041,1 -2.73,2.379 -3.724,3.932 -1.678,2.621 -3.775,3.561 -5.475,6.17 -0.861,1.322 -3.571,1.209 -2.927,2.754 0.645,1.549 9.08,0.41 13.635,-0.203 3.246,-0.439 6.396,-0.375 9.514,-1.27 4.365,-1.25 8.848,-1.25 12.878,-3.293 3.486,-1.768 7.042,-2.684 10.52,-3.898 4.495,-1.568 8.902,-3.32 13.115,-5.842 0.833,-0.498 1.682,-1.205 2.737,-1.4 2.137,-0.396 4.118,1.24 6.137,-0.129 1.531,-1.039 2.426,-2.598 3.967,-3.439 2.117,-1.156 4.872,0.58 6.767,-1.041 0.243,-0.207 0.958,-0.242 0.94,-0.881 -0.033,-1.17 -0.659,-2.074 -0.949,-3.125 -0.256,-0.93 1.065,-1.535 1.266,-2.328 0.65,-2.574 -3.438,-0.279 -4.737,-2.795 -1.034,-2 4.123,-5.222 -5.287,-7.607 z"
           inkscape:connector-curvature="0" />
      </g>
      <g
         id="g3398">
        <path
           id="path3400"
           d="m 166.953,409.76 c -1.839,-0.465 -2.642,-0.064 -3.689,0.037 -1.591,0.152 -3.084,0.721 -4.659,1.023 -0.478,0.092 -1.048,0.418 -1.593,0.543 -2.163,0.498 -4.378,-0.059 -6.38,0.715 -3.826,1.475 -7.785,2.508 -11.89,2.889 -2.596,0.242 -3.761,2.961 -5.984,4.4 -1.662,1.076 -3.738,0.58 -5.236,1.561 -0.921,0.604 -1.548,1.98 -2.54,2.453 -1.678,0.803 -3.838,0.379 -5.516,1.332 -0.888,0.504 -1.043,1.744 -1.669,2.672 -1.118,1.664 -3.01,1.75 -4.84,2.143 -0.841,0.18 -1.279,0.896 -1.771,1.533 -0.875,1.131 -1.571,2.094 -2.611,3.094 -1.041,0.998 -2.73,2.379 -3.724,3.932 -1.678,2.621 -3.775,3.561 -5.476,6.17 -0.861,1.32 -3.571,1.207 -2.926,2.754 0.645,1.545 9.079,0.408 13.635,-0.205 3.246,-0.438 6.396,-0.377 9.514,-1.268 4.365,-1.25 8.848,-1.25 12.878,-3.293 3.486,-1.77 7.042,-2.686 10.52,-3.898 4.495,-1.568 8.903,-3.32 13.115,-5.842 0.833,-0.5 1.683,-1.207 2.737,-1.402 2.137,-0.396 4.118,1.242 6.136,-0.129 1.531,-1.039 2.427,-2.596 3.967,-3.438 2.117,-1.156 4.872,0.58 6.767,-1.041 0.243,-0.207 0.958,-0.242 0.94,-0.881 -0.033,-1.17 -0.658,-2.074 -0.949,-3.125 -0.256,-0.932 1.065,-1.535 1.266,-2.328 0.65,-2.574 -3.439,-0.279 -4.737,-2.795 -1.032,-1.998 4.124,-5.223 -5.285,-7.606 z"
           inkscape:connector-curvature="0"
           style="fill:#ffffff;stroke:#000000;stroke-width:0.96749997" />
      </g>
      <path
         id="path3402"
         d="m 208.328,431.286 c 0,0 -3.91,8.326 -7.984,10.967 -5.55,3.598 -14.443,0.504 -17.268,-2.211 -0.286,-0.275 -0.409,-0.715 -0.616,-0.941 -0.699,-0.768 -1.297,-1.658 -2.051,-2.311 -1.783,-1.545 -3.84,-0.102 -5.251,1.285 -1.274,1.252 -3.741,3.242 -5.248,4.254 -5.45,3.664 -7.791,5.648 -13.568,9.238 -1.601,0.992 -7.67,3.846 -9.347,4.633 -9.384,4.41 -19.098,7.375 -25.081,8.057 -4.031,0.459 -8.015,1.422 -11.933,2.152 -6.275,1.17 -12.491,1.545 -19.177,2.682 -6.414,1.09 -12.619,1.592 -18.589,3.957 -2.707,2.449 -5.765,2.951 -9.02,3.375 -0.666,0.086 -1.214,0.455 -1.783,0.791 -2.183,1.297 -2.794,1.838 -4.498,3.484 -0.722,0.699 -2.862,2.551 -3.617,3.34 -0.566,0.594 -1.694,0.824 -2.072,1.471 -0.306,0.523 -0.325,1.357 -0.733,1.924 -1.109,1.541 -3.188,1.125 -4.808,1.664 -1.388,0.461 -1.007,2.252 -1.876,3.24 -0.808,0.92 -3.817,0.945 -2.989,2.795 0.584,1.307 3.019,1.082 3.064,2.412 0.122,3.59 -5.138,2.637 -7.735,4.158 -0.213,0.125 -2.086,1.57 2.243,1.297 6.129,-0.387 11.091,-5.748 17.57,-4.373 1.313,0.279 1.785,1.674 0.991,2.738 -0.825,1.104 -2.029,1.787 -2.675,2.934 -0.614,1.092 0.15,2.072 1.2,2.748 9.462,6.088 15.024,6.223 25.796,7.16 0.996,0.086 3.322,1.016 6.09,1.293 2.768,0.275 5.719,-0.121 8.556,0.195 2.263,0.252 4.4,0.701 6.686,1.092 0.714,0.121 1.508,0.908 2.172,1.166 2.329,0.906 5.175,0.42 6.572,3.068 0.47,0.895 -0.699,1.662 -0.407,2.531 0.339,1.016 2.649,1.311 3.934,2.658 3.368,3.533 4.276,6.717 9.671,6.385 4.852,2.107 10.018,3.395 15.251,4.041 4.261,0.525 8.534,0.607 12.848,0.855 1.66,0.096 6.48,0.973 7.84,0.674 3.829,-0.838 2.639,-1.855 6.481,-2.594 1.204,-0.23 3.542,-0.023 4.746,-0.199 3.625,-0.529 6.889,-1.479 10.546,-2.17 3.345,-0.633 6.29,-2.053 9.312,-3.443 0,0.088 0,0.172 0,0.258 2.747,-1.469 5.398,-2.98 8.185,-4.5 0.759,-0.414 1.424,-1.133 2.189,-1.58 2.973,-1.736 6.539,-3.004 7.732,-6.146 1.55,-4.078 -1.415,-7.945 -3.072,-9.273 -1.953,-1.564 -3.863,-2.48 -6.059,-3.676 -4.937,-2.688 -10.914,-3.609 -16.63,-3.768 -4.461,-0.121 -7.182,0.547 -11.148,0.172 -1.106,-0.105 -0.457,-0.99 -0.067,-1.666 0.45,-0.779 1.55,-1.084 2.45,-1.139 6.367,-0.389 12.924,-0.535 20.367,1.18 4.731,1.09 8.408,2.697 12.589,5.398 4.474,2.893 6.021,6.244 14.996,10.641 8.867,4.342 19.408,3.713 28.4,0.016 0.785,-0.322 7.287,-3.381 10.314,-5.506 2.039,-1.432 6.016,-4.199 8.064,-5.746 2.535,-1.908 2.705,-2.168 5.396,-3.967 1.016,-0.678 4.002,-3.25 4.901,-4.08 0.583,-0.539 2.963,-3.072 3.444,-3.635 3.576,-4.184 5.391,-6.613 6.123,-13.578 -0.074,0.697 0.283,-4.295 0.485,-6.387 0.74,-7.633 -0.582,-11.68 -4.021,-18.432 -2.226,-4.371 -4.094,-7.012 -7.041,-9.713 -4.196,-3.848 -9.012,-6.482 -14.188,-8.566 -2.873,-1.156 -5.964,-1.912 -8.991,-2.188 -5.824,-0.527 -11.523,-1.229 -17.482,0.088 -6.647,1.469 -10.053,6.873 -12.848,12.463 -1.482,2.965 -4.427,3.541 -5.915,5.582 -3.047,4.182 -5.556,6.277 -8.16,11.59 -3.534,7.209 -7.494,13.805 -13.279,19.264 -5.924,5.592 -13.44,8.586 -21.198,10.986 -2.482,0.77 -6.099,1.236 -7.501,-0.336 -0.958,-1.076 1.402,-2.211 2.422,-2.414 6.537,-1.299 11.69,-1.525 17.166,-5.396 2.672,-1.887 5.82,-4.48 7.801,-7.234 2.233,-3.104 4.31,-5.865 6.01,-9.117 2.037,-3.896 4.13,-7.613 5.523,-11.791 0.156,-0.469 0.176,-1.062 -0.01,-1.504 -0.828,-1.967 -2.902,-2.539 -4.256,-4.535 -0.087,-0.129 -0.87,-2.008 -1.49,-2.486 -1.989,-1.539 -2.731,-3.576 -1.781,-5.721 2.309,-5.198 7.337,-12.03 7.337,-12.03 z"
         inkscape:connector-curvature="0"
         style="stroke:#000000;stroke-width:0.3222" />
      <path
         id="path3404"
         d="m 208.328,431.286 c 0,0 -3.812,6.986 -7.34,10.322 -5.099,4.822 -13.09,3.469 -16.881,-0.535 -0.273,-0.289 -0.41,-0.715 -0.616,-0.941 -0.698,-0.77 -1.297,-1.658 -2.051,-2.312 -1.783,-1.543 -3.839,-0.1 -5.25,1.287 -1.274,1.25 -3.741,3.24 -5.247,4.254 -5.45,3.664 -7.792,5.646 -13.568,9.236 -1.601,0.994 -7.67,3.848 -9.347,4.635 -9.384,4.41 -19.098,7.373 -25.081,8.057 -4.032,0.459 -8.015,1.422 -11.933,2.152 -6.275,1.17 -12.491,1.545 -19.177,2.682 -6.414,1.09 -12.619,1.592 -18.588,3.957 -2.707,2.449 -5.765,2.953 -9.02,3.375 -0.665,0.088 -1.214,0.455 -1.782,0.793 -2.183,1.297 -2.794,1.838 -4.498,3.484 -0.723,0.697 -2.863,2.549 -3.617,3.34 -0.565,0.592 -1.694,0.822 -2.072,1.469 -0.307,0.525 -0.326,1.359 -0.734,1.926 -1.108,1.541 -3.188,1.125 -4.808,1.662 -1.388,0.461 -1.007,2.254 -1.876,3.242 -0.808,0.92 -3.817,0.945 -2.99,2.795 0.584,1.305 3.019,1.082 3.064,2.412 0.122,3.59 -5.137,2.637 -7.734,4.158 -0.214,0.125 -2.086,1.568 2.243,1.297 6.129,-0.389 11.091,-5.748 17.57,-4.373 1.313,0.279 1.785,1.674 0.991,2.736 -0.826,1.104 -2.029,1.787 -2.675,2.936 -0.614,1.09 0.15,2.072 1.2,2.748 9.462,6.088 15.023,6.223 25.797,7.16 0.995,0.086 3.321,1.016 6.089,1.291 2.768,0.275 5.719,-0.121 8.556,0.193 2.263,0.252 4.4,0.703 6.685,1.094 0.714,0.123 1.508,0.908 2.173,1.168 2.328,0.904 5.175,0.418 6.571,3.068 0.47,0.893 -0.699,1.662 -0.408,2.531 0.34,1.014 2.649,1.309 3.935,2.658 3.367,3.533 4.275,6.717 9.671,6.385 4.852,2.107 10.018,3.393 15.251,4.041 4.261,0.527 8.534,0.607 12.847,0.857 1.66,0.096 6.48,0.971 7.841,0.674 3.828,-0.84 2.639,-1.857 6.481,-2.596 1.204,-0.23 3.542,-0.023 4.746,-0.199 3.625,-0.529 6.889,-1.479 10.546,-2.17 3.346,-0.633 6.291,-2.053 9.312,-3.443 0,0.086 0,0.17 0,0.258 2.747,-1.469 5.398,-2.982 8.185,-4.502 0.759,-0.414 1.424,-1.133 2.189,-1.58 2.973,-1.736 6.539,-3.002 7.732,-6.145 1.551,-4.078 -1.414,-7.945 -3.071,-9.275 -1.952,-1.564 -3.863,-2.479 -6.059,-3.674 -4.937,-2.689 -10.914,-3.611 -16.63,-3.768 -4.461,-0.123 -7.182,0.547 -11.149,0.17 -1.105,-0.105 -0.457,-0.99 -0.066,-1.666 0.45,-0.777 1.549,-1.082 2.45,-1.139 6.366,-0.389 12.924,-0.535 20.366,1.18 4.732,1.09 8.408,2.697 12.589,5.4 4.474,2.893 6.021,6.242 14.996,10.639 8.866,4.342 19.408,3.715 28.4,0.016 0.785,-0.322 7.285,-3.381 10.315,-5.506 2.039,-1.432 6.015,-4.199 8.065,-5.744 2.535,-1.91 2.703,-2.17 5.395,-3.969 1.016,-0.678 4.002,-3.25 4.9,-4.08 0.584,-0.537 2.963,-3.07 3.445,-3.633 3.575,-4.184 5.391,-6.613 6.123,-13.58 -0.074,0.699 0.283,-4.295 0.486,-6.387 0.738,-7.631 -0.582,-11.68 -4.02,-18.432 -2.228,-4.371 -4.096,-7.012 -7.043,-9.713 -4.197,-3.848 -9.013,-6.482 -14.188,-8.566 -2.873,-1.154 -5.964,-1.912 -8.991,-2.186 -5.823,-0.527 -11.524,-1.23 -17.482,0.086 -6.647,1.469 -10.053,6.875 -12.848,12.463 -1.482,2.965 -4.427,3.541 -5.915,5.584 -3.048,4.18 -5.556,6.275 -8.161,11.59 -3.533,7.207 -7.494,13.803 -13.279,19.262 -5.923,5.592 -13.439,8.586 -21.197,10.986 -2.482,0.77 -6.099,1.236 -7.501,-0.336 -0.958,-1.076 1.403,-2.211 2.422,-2.414 6.537,-1.299 11.69,-1.525 17.166,-5.395 2.671,-1.889 5.82,-4.482 7.801,-7.234 2.233,-3.104 4.31,-5.867 6.01,-9.119 2.037,-3.896 4.13,-7.611 5.523,-11.791 0.157,-0.469 0.176,-1.062 -0.01,-1.504 -0.829,-1.967 -2.903,-2.539 -4.256,-4.537 -0.086,-0.127 -0.87,-2.006 -1.489,-2.484 -1.989,-1.539 -1.926,-3.379 -1.781,-5.721 0.35,-5.609 6.302,-13.06 6.302,-13.06 z"
         inkscape:connector-curvature="0"
         style="fill:#ffffff;stroke:#000000;stroke-width:0.96749997" />
      <g
         id="g3406">
        <path
           id="path3408"
           d="m 275.906,391.084 c -5.066,1.403 -7.128,3.08 -10.975,5.865 -3.561,2.58 -6.797,5.205 -9.842,9.406 -2.172,2.996 -2.981,4.76 -1.981,7.834 1.136,3.492 5.905,5.865 8.134,6.895 7.014,3.234 14.582,5.078 22.348,4.395 6.738,-0.594 12.306,-4.143 16.272,-9.611 3.589,-4.947 3.226,-11.492 1.279,-15.197 -2.896,-5.516 -6.069,-8.053 -8.712,-8.957 -4.929,-1.682 -10.791,-2.215 -16.523,-0.63 z"
           inkscape:connector-curvature="0"
           style="fill:#b3b3b3;stroke:#000000;stroke-width:0.3222" />
      </g>
      <g
         id="g3410">
        <path
           id="path3412"
           d="m 280.21,394.851 c -7.049,1.504 -8.297,2.829 -12.221,5.132 -1.548,0.908 -3.576,2.6 -4.869,3.846 -3.752,3.611 -2.25,3.732 -4.033,5.771 -0.627,0.719 -0.846,1.717 -0.645,2.664 0.184,0.869 0.734,1.49 1.271,2.184 0.513,0.666 1.304,0.854 1.973,1.354 1.064,0.797 2.27,1.223 3.449,1.828 2.572,1.324 5.298,1.82 8.105,2.58 5.205,1.41 8.416,0.639 12.73,-0.152 4.104,-0.754 7.555,-2.949 10.062,-6.195 3.051,-3.951 1.978,-9.219 -0.141,-13.371 -1.506,-2.955 -4.827,-4.355 -7.887,-5.361 -1.274,-0.422 -6.575,-0.541 -7.794,-0.28 z"
           inkscape:connector-curvature="0" />
      </g>
      <g
         id="g3414">
        <path
           id="path3416"
           d="m 280.726,395.368 c -7.049,1.502 -8.297,2.828 -12.221,5.131 -1.549,0.91 -3.576,2.602 -4.871,3.846 -3.75,3.611 -2.25,3.732 -4.032,5.773 -0.627,0.717 -0.845,1.715 -0.644,2.664 0.184,0.869 0.734,1.49 1.271,2.182 0.513,0.666 1.304,0.854 1.972,1.355 1.064,0.797 2.271,1.221 3.449,1.828 2.573,1.322 5.299,1.818 8.105,2.578 5.205,1.41 8.416,0.639 12.73,-0.154 4.104,-0.752 7.555,-2.947 10.062,-6.193 3.05,-3.951 1.977,-9.219 -0.141,-13.371 -1.507,-2.957 -4.826,-4.356 -7.887,-5.361 -1.273,-0.421 -6.574,-0.539 -7.793,-0.278 z"
           inkscape:connector-curvature="0"
           style="fill:#ffffff;stroke:#000000;stroke-width:0.80620003" />
      </g>
      <g
         id="g3418">
        <path
           id="path3420"
           d="m 299.583,350.34 c -27.711,-9.666 -38.022,-1.418 -46.084,1.632 -5.674,2.146 -15.021,9.055 -15.91,9.864 -9.026,8.226 -15.729,14.67 -23.592,25.625 -3.749,5.225 -6.662,9.824 -10.924,14.738 -3.514,4.053 -2.493,3.666 -3.904,4.066 -1.412,0.4 -5.062,-1.02 -5.49,-0.279 -0.691,1.195 2.177,2.143 2.723,3.164 0.935,1.748 0.064,3.686 -1.235,4.832 -2.771,2.441 -4.207,5.406 -6.611,8.092 -1.057,1.182 -2.653,5.428 -2.842,6.137 -0.246,0.916 -0.367,1.842 -0.496,2.855 -0.865,6.793 3.149,7.643 5.083,8.281 3.058,1.012 5.652,0.701 8.071,-1.158 2.954,-2.271 4.941,-4.439 6.275,-7.914 0.28,-0.73 -0.088,-1.771 1.051,-2.502 0.953,-0.613 2.038,-0.51 2.432,0.32 0.202,0.426 0.712,0.613 0.712,1.127 1.831,-0.564 2.578,1.678 2.126,3.139 -0.275,0.891 -3.157,1.502 -4.994,7.682 -0.464,1.559 -0.5,3.127 -0.335,4.631 0.217,1.986 1.137,3.939 2.795,5.004 5.751,3.695 12.093,-1.324 14.981,-6.346 1.465,-2.545 1.624,-5.553 2.954,-8.043 1.251,-2.34 2.292,-4.719 4.047,-6.904 1.155,-1.438 12.536,-20.148 24.054,-31.9 12.761,-13.018 19.206,-15.016 23.251,-15.291 4.467,-0.304 7.296,-0.047 12.13,1.113 l 9.732,-31.965 z"
           inkscape:connector-curvature="0" />
      </g>
      <g
         id="g3422">
        <path
           id="path3424"
           d="m 300.1,350.856 c -27.712,-9.667 -38.022,-1.418 -46.086,1.632 -5.673,2.146 -15.021,9.056 -15.909,9.864 -9.026,8.225 -15.728,14.669 -23.59,25.625 -3.75,5.225 -6.662,9.822 -10.924,14.738 -3.515,4.053 -2.494,3.666 -3.904,4.066 -1.412,0.398 -5.062,-1.021 -5.49,-0.279 -0.69,1.195 2.177,2.145 2.723,3.164 0.935,1.748 0.063,3.686 -1.235,4.832 -2.771,2.443 -4.207,5.408 -6.611,8.094 -1.057,1.18 -2.653,5.43 -2.842,6.135 -0.245,0.916 -0.367,1.844 -0.496,2.855 -0.866,6.793 3.149,7.641 5.083,8.281 3.058,1.012 5.652,0.703 8.072,-1.158 2.954,-2.271 4.941,-4.439 6.274,-7.914 0.281,-0.729 -0.087,-1.77 1.052,-2.502 0.953,-0.613 2.038,-0.508 2.432,0.32 0.202,0.426 0.712,0.613 0.712,1.129 1.831,-0.566 2.578,1.676 2.126,3.137 -0.275,0.889 -3.157,1.502 -4.994,7.682 -0.463,1.561 -0.5,3.127 -0.334,4.633 0.217,1.984 1.137,3.938 2.794,5.004 5.751,3.691 12.093,-1.326 14.982,-6.348 1.465,-2.545 1.623,-5.553 2.954,-8.043 1.25,-2.34 2.292,-4.719 4.046,-6.902 1.156,-1.438 12.536,-20.15 24.055,-31.9 12.76,-13.019 19.206,-15.018 23.252,-15.291 4.467,-0.305 7.297,-0.047 12.129,1.112 l 9.729,-31.966 z"
           inkscape:connector-curvature="0"
           style="fill:#ffffff;stroke:#000000;stroke-width:0.96749997" />
      </g>
      <path
         id="path3426"
         d="m 178.398,430.518 c -0.873,-2.91 -5.793,-3.178 -6.976,-3.178 -1.182,0 -2.687,0 -3.225,0.752 -0.538,0.754 -1.72,1.613 -2.365,2.365 -0.645,0.754 -1.72,1.291 -3.118,1.184 -1.397,-0.107 -1.612,-0.967 -3.225,-0.537 0,0 -3.425,1.27 -4.714,2.074 -1.291,0.807 -5.966,3.064 -8.385,3.871 -2.418,0.807 -5.804,2.176 -7.74,2.822 -1.935,0.645 -4.192,1.451 -5.643,2.096 -1.451,0.645 -2.983,1.289 -5.321,1.854 -2.338,0.565 -4.031,0.727 -5.401,1.049 -1.371,0.322 -6.127,1.531 -12.012,1.854 -5.886,0.322 -6.531,0.887 -8.949,0.967 -2.418,0.082 -22.413,0.162 -27.492,1.129 -5.08,0.967 -10.965,3.145 -15.641,5.562 -4.676,2.42 -12.819,7.336 -18.14,10.965 -5.321,3.627 -12.012,7.98 -16.205,11.125 0,0 -10.32,10.32 -12.093,13.143 -1.773,2.82 -5.401,10.238 -5.321,13.705 0.08,3.467 2.66,12.094 8.143,16.689 5.482,4.596 17.333,10.4 21.606,12.094 4.273,1.691 18.785,7.014 18.785,7.014 0,0 6.934,2.418 10.48,3.385 3.548,0.969 4.031,1.209 4.031,1.209 l 4.192,-29.021 c 0,0 -4.999,-0.699 -8.062,-1.936 -3.063,-1.237 -5.858,-2.418 -7.74,-3.439 -1.881,-1.021 -2.741,-2.258 -3.279,-2.85 -0.537,-0.592 -0.859,-1.344 -0.43,-2.148 0.43,-0.809 1.72,-1.936 2.257,-2.58 0.538,-0.646 1.237,-1.828 -0.053,-1.881 -1.29,-0.055 -3.547,-0.055 -5.267,0.535 -1.72,0.592 -3.547,1.398 -5.375,2.098 -1.828,0.697 -5.375,2.096 -7.525,1.771 -2.15,-0.32 -2.58,-1.234 -1.344,-1.666 1.236,-0.43 3.44,-1.773 5.052,-2.471 1.613,-0.699 2.365,-2.098 1.183,-2.58 -1.182,-0.484 -1.667,-1.721 -1.667,-1.721 0,0 -1.29,-0.645 -0.752,-1.559 0.538,-0.914 1.881,-1.184 2.526,-1.613 0.645,-0.429 1.021,-1.826 1.344,-2.58 0.322,-0.752 1.666,-1.344 2.956,-1.559 1.29,-0.215 1.666,0.27 2.634,-0.967 0.967,-1.236 0.376,-1.559 1.075,-2.365 0.698,-0.807 1.504,-0.699 2.364,-1.559 0.86,-0.861 3.87,-3.764 5.483,-5 1.612,-1.236 3.117,-2.203 4.406,-2.365 1.291,-0.16 3.924,-0.59 5.375,-1.289 1.451,-0.699 3.278,-2.15 3.278,-2.15 0,0 2.418,-0.914 4.891,-1.504 2.473,-0.592 7.471,-1.398 10.427,-1.881 2.957,-0.484 6.665,-0.967 10.105,-1.451 3.439,-0.484 7.9,-0.859 11.771,-1.611 3.87,-0.754 7.095,-1.506 9.782,-1.881 2.688,-0.377 8.009,-1.184 11.395,-2.205 3.386,-1.021 5.428,-1.504 10.911,-3.816 5.482,-2.311 11.69,-4.971 15.156,-7.229 3.467,-2.258 7.74,-5.24 11.61,-7.9 3.87,-2.662 6.53,-5.16 7.901,-6.289 1.375,-1.129 3.551,-2.5 2.341,-6.531 z"
         inkscape:connector-curvature="0"
         style="fill:#f69679;stroke:#000000;stroke-width:0.40310001" />
      <path
         id="path3428"
         d="M 162.051,561.249 161.517,539.2 c 0,0 -3.247,-0.65 -6.902,-0.865 -3.655,-0.215 -10.964,-0.43 -16.554,-1.289 -5.59,-0.861 -10.965,-2.15 -11.396,-2.795 -0.429,-0.645 -3.01,-1.076 -3.01,-1.076 0,0 -2.579,-0.215 -3.654,-1.504 -1.075,-1.291 -3.064,-3.396 -4.095,-4.43 -1.032,-1.031 -3.935,-2.656 -3.935,-2.656 l -0.57,-2.805 -1.075,-1.721 c 0,0 -2.149,-0.645 -4.085,-1.289 -1.935,-0.645 -6.019,-2.58 -8.169,-2.365 -2.15,0.215 -7.961,0.248 -9.678,0.125 -1.716,-0.125 -5.586,-1.629 -7.091,-1.629 -1.505,0 -7.632,-0.217 -7.632,-0.217 l -4.192,29.023 c 0,0 6.45,2.258 12.093,3.064 5.643,0.807 18.866,3.387 25.154,5.482 6.288,2.095 15.156,4.354 21.768,5.805 6.611,1.451 19.349,3.709 27.572,3.549"
         inkscape:connector-curvature="0"
         style="fill:#fff799;stroke:#000000;stroke-width:0.40310001" />
      <line
         id="line3430"
         y2="461.36801"
         x2="132.256"
         y1="443.82101"
         x1="127.688"
         style="fill:none;stroke:#000000;stroke-width:0.80620003" />
      <line
         id="line3432"
         y2="471.90302"
         x2="74.853996"
         y1="449.116"
         x1="72.488998"
         style="fill:none;stroke:#000000;stroke-width:0.80620003" />
      <g
         id="g3434">
        <path
           id="path3436"
           d="m 289.401,386.043 c 0,0 -7.745,-1.666 -11.838,-0.924 -3.978,0.721 -6.979,3.25 -9.991,5.504 -10.799,8.078 -21.222,20.297 -26.506,28.16 -1.929,2.869 -6.187,7.99 -3.351,10.053 13.535,1.031 27.326,-0.645 42.318,10.641 4,3.01 10.012,9.467 12.795,16.732 1.657,4.33 3.146,7.428 3.451,13.604 0.375,7.611 -0.109,14.998 -3.656,21.795 -3.093,5.93 -6.058,8.637 -10.516,12.15 -2.195,1.732 -19.434,13.385 -29.008,22.332 -6.848,6.4 -14.203,11.998 -23.409,14.469 -3.487,0.936 -5.976,3.852 -8.951,6.232 -2.147,1.717 -4.748,2.488 -7.214,3.516 -4.18,1.742 -8.702,1.795 -13.277,2.527 -13.26,2.125 -24.979,7.893 -38.198,8.412 -8.634,0.34 -16.924,0.4 -25.771,-1.477 -6.277,-1.33 -9.156,-2.041 -17.949,-4.402 -4.107,-1.104 -6.158,-1.635 -10.917,-3.047 -2.256,-0.67 -13.409,-3.998 -16.509,-4.389 C 67.477,544.988 53.138,538.523 30.875,529.806 19.78,525.463 8.87,518.102 6.782,505.735 c -1.409,-8.344 4.472,-15.756 9.125,-22.1 4.364,-5.949 23.709,-18.625 34.583,-24.859 10.829,-6.211 20.82,-12.43 29.251,-21.486 5.902,-6.34 12.185,-11.281 18.629,-17.004 8.723,-7.746 17.294,-12.461 28.69,-16.863 14.627,-5.65 26.127,-9.186 40.126,-8.883 6.467,0.139 12.911,2.588 18.786,4.875 2.412,0.938 6.237,2.164 8.637,2.871 2.555,0.754 5.013,-0.604 6.519,-2.91 3.798,-5.817 6.767,-8.543 10.7,-14.31 8.742,-12.815 11.763,-15.442 22.792,-25.446 18.045,-16.371 42.124,-23.203 67.154,-13.277 l -12.373,39.7 z"
           inkscape:connector-curvature="0"
           style="fill:none;stroke:#000000;stroke-width:0.96749997" />
      </g>
      <path
         id="path3438"
         d="m 208.328,431.286 c 0,0 -3.812,6.986 -7.34,10.322 -5.099,4.822 -13.09,3.469 -16.881,-0.535 -0.273,-0.289 -0.41,-0.715 -0.616,-0.941 -0.698,-0.77 -1.297,-1.658 -2.051,-2.312 -1.783,-1.543 -3.839,-0.1 -5.25,1.287 -1.274,1.25 -3.741,3.24 -5.247,4.254 -5.45,3.664 -7.792,5.646 -13.568,9.236 -1.601,0.994 -7.67,3.848 -9.347,4.635 -9.384,4.41 -19.098,7.373 -25.081,8.057 -4.032,0.459 -8.015,1.422 -11.933,2.152 -6.275,1.17 -12.491,1.545 -19.177,2.682 -6.414,1.09 -12.619,1.592 -18.588,3.957 -2.707,2.449 -5.765,2.953 -9.02,3.375 -0.665,0.088 -1.214,0.455 -1.782,0.793 -2.183,1.297 -2.794,1.838 -4.498,3.484 -0.723,0.697 -2.863,2.549 -3.617,3.34 -0.565,0.592 -1.694,0.822 -2.072,1.469 -0.307,0.525 -0.326,1.359 -0.734,1.926 -1.108,1.541 -3.188,1.125 -4.808,1.662 -1.388,0.461 -1.007,2.254 -1.876,3.242 -0.808,0.92 -3.817,0.945 -2.99,2.795 0.584,1.305 3.019,1.082 3.064,2.412 0.122,3.59 -5.137,2.637 -7.734,4.158 -0.214,0.125 -2.086,1.568 2.243,1.297 6.129,-0.389 11.091,-5.748 17.57,-4.373 1.313,0.279 1.785,1.674 0.991,2.736 -0.826,1.104 -2.029,1.787 -2.675,2.936 -0.614,1.09 0.15,2.072 1.2,2.748 9.462,6.088 15.023,6.223 25.797,7.16 0.995,0.086 3.321,1.016 6.089,1.291 2.768,0.275 5.719,-0.121 8.556,0.193 2.263,0.252 4.4,0.703 6.685,1.094 0.714,0.123 1.508,0.908 2.173,1.168 2.328,0.904 5.175,0.418 6.571,3.068 0.47,0.893 -0.699,1.662 -0.408,2.531 0.34,1.014 2.649,1.309 3.935,2.658 3.367,3.533 4.275,6.717 9.671,6.385 4.852,2.107 10.018,3.393 15.251,4.041 4.261,0.527 8.534,0.607 12.847,0.857 1.66,0.096 6.48,0.971 7.841,0.674 3.828,-0.84 2.639,-1.857 6.481,-2.596 1.204,-0.23 3.542,-0.023 4.746,-0.199 3.625,-0.529 6.889,-1.479 10.546,-2.17 3.346,-0.633 6.291,-2.053 9.312,-3.443 0,0.086 0,0.17 0,0.258 2.747,-1.469 5.398,-2.982 8.185,-4.502 0.759,-0.414 1.424,-1.133 2.189,-1.58 2.973,-1.736 6.539,-3.002 7.732,-6.145 1.551,-4.078 -1.414,-7.945 -3.071,-9.275 -1.952,-1.564 -3.863,-2.479 -6.059,-3.674 -4.937,-2.689 -10.914,-3.611 -16.63,-3.768 -4.461,-0.123 -7.182,0.547 -11.149,0.17 -1.105,-0.105 -0.457,-0.99 -0.066,-1.666 0.45,-0.777 1.549,-1.082 2.45,-1.139 6.366,-0.389 12.924,-0.535 20.366,1.18 4.732,1.09 8.408,2.697 12.589,5.4 4.474,2.893 6.021,6.242 14.996,10.639 8.866,4.342 19.408,3.715 28.4,0.016 0.785,-0.322 7.285,-3.381 10.315,-5.506 2.039,-1.432 6.015,-4.199 8.065,-5.744 2.535,-1.91 2.703,-2.17 5.395,-3.969 1.016,-0.678 4.002,-3.25 4.9,-4.08 0.584,-0.537 2.963,-3.07 3.445,-3.633 3.575,-4.184 5.391,-6.613 6.123,-13.58 -0.074,0.699 0.283,-4.295 0.486,-6.387 0.738,-7.631 -0.582,-11.68 -4.02,-18.432 -2.228,-4.371 -4.096,-7.012 -7.043,-9.713 -4.197,-3.848 -9.013,-6.482 -14.188,-8.566 -2.873,-1.154 -5.964,-1.912 -8.991,-2.186 -5.823,-0.527 -11.524,-1.23 -17.482,0.086 -6.647,1.469 -10.053,6.875 -12.848,12.463 -1.482,2.965 -4.427,3.541 -5.915,5.584 -3.048,4.18 -5.556,6.275 -8.161,11.59 -3.533,7.207 -7.494,13.803 -13.279,19.262 -5.923,5.592 -13.439,8.586 -21.197,10.986 -2.482,0.77 -6.099,1.236 -7.501,-0.336 -0.958,-1.076 1.403,-2.211 2.422,-2.414 6.537,-1.299 11.69,-1.525 17.166,-5.395 2.671,-1.889 5.82,-4.482 7.801,-7.234 2.233,-3.104 4.31,-5.867 6.01,-9.119 2.037,-3.896 4.13,-7.611 5.523,-11.791 0.157,-0.469 0.176,-1.062 -0.01,-1.504 -0.829,-1.967 -2.903,-2.539 -4.256,-4.537 -0.086,-0.127 -0.87,-2.006 -1.489,-2.484 -1.989,-1.539 -1.926,-3.379 -1.781,-5.721 0.35,-5.609 6.302,-13.06 6.302,-13.06 z"
         inkscape:connector-curvature="0"
         style="fill:none;stroke:#000000;stroke-width:0.96749997" />
      <path
         id="path3440"
         d="m 161.517,539.2 0.534,22.049 c 0,0 9.764,-1.199 15.353,-2.488 5.59,-1.291 11.395,-3.334 16.34,-4.301 4.945,-0.967 13.437,-1.396 16.984,-2.686 3.547,-1.291 9.782,-4.408 11.825,-6.344 2.042,-1.936 2.115,-2.135 3.439,-3.01 5.697,-3.762 4.408,-11.717 1.828,-16.555 -2.58,-4.836 -13.975,-6.879 -19.027,-4.193 0,0 -6.665,4.086 -8.599,5.16 -1.936,1.076 -8.385,4.514 -11.717,5.697 -3.333,1.184 -9.567,2.58 -13.114,3.225 -3.547,0.646 -6.02,0.516 -7.363,0.85 -1.344,0.334 -4.461,1.84 -4.999,2.055 -0.539,0.215 -1.484,0.541 -1.484,0.541 z"
         inkscape:connector-curvature="0"
         style="fill:#81c99c;stroke:#000000;stroke-width:0.96749997" />
      <line
         id="line3442"
         y2="514.68597"
         x2="73.670998"
         y1="543.47302"
         x1="69.458"
         style="fill:#ffffff;stroke:#000000;stroke-width:0.96749997" />
      <line
         id="line3444"
         y2="539.20001"
         x2="161.517"
         y1="561.51202"
         x1="162.07201"
         style="fill:#ffffff;stroke:#000000;stroke-width:0.96749997" />
    </g>
  </g>
</svg>
