<?xml version="1.0" encoding="UTF-8" standalone="no"?>
<!-- Created with Inkscape (http://www.inkscape.org/) -->

<svg
   xmlns:dc="http://purl.org/dc/elements/1.1/"
   xmlns:cc="http://creativecommons.org/ns#"
   xmlns:rdf="http://www.w3.org/1999/02/22-rdf-syntax-ns#"
   xmlns:svg="http://www.w3.org/2000/svg"
   xmlns="http://www.w3.org/2000/svg"
   xmlns:sodipodi="http://sodipodi.sourceforge.net/DTD/sodipodi-0.dtd"
   xmlns:inkscape="http://www.inkscape.org/namespaces/inkscape"
   width="512pt"
   height="512pt"
   viewBox="0 0 640.00002 639.99999"
   id="svg2"
   version="1.1"
   inkscape:version="0.91 r13725"
   sodipodi:docname="pulmo.svg">
  <defs
     id="defs4" />
  <sodipodi:namedview
     id="base"
     pagecolor="#ffffff"
     bordercolor="#666666"
     borderopacity="1.0"
     inkscape:pageopacity="0.0"
     inkscape:pageshadow="2"
     inkscape:zoom="0.7"
     inkscape:cx="-188.22551"
     inkscape:cy="141.07421"
     inkscape:document-units="px"
     inkscape:current-layer="layer1"
     showgrid="false"
     units="pt"
     inkscape:window-width="1920"
     inkscape:window-height="1017"
     inkscape:window-x="-8"
     inkscape:window-y="-8"
     inkscape:window-maximized="1" />
  <metadata
     id="metadata7">
    <rdf:RDF>
      <cc:Work
         rdf:about="">
        <dc:format>image/svg+xml</dc:format>
        <dc:type
           rdf:resource="http://purl.org/dc/dcmitype/StillImage" />
        <dc:title></dc:title>
      </cc:Work>
    </rdf:RDF>
  </metadata>
  <g
     inkscape:label="Layer 1"
     inkscape:groupmode="layer"
     id="layer1"
     transform="translate(0,-412.36222)">
    <g
       id="g4152"
       transform="translate(-831.10911,508.73558)"
       clip-path="none"
       inkscape:transform-center-x="75.714288"
       inkscape:transform-center-y="15.714286" />
    <g
       id="Black_Bg"
       transform="translate(-940.34566,482.58633)" />
    <g
       id="g4972"
       transform="matrix(1.3173382,0,0,1.3173382,-0.23328098,412.12784)">
      <path
         id="path4934"
         d="M 482.432,311.733 C 475.387,273.16 458.31,231.89 434.348,195.523 412.181,161.88 386.649,136.176 364.298,125 c -23.502,-11.751 -41.387,-13.481 -53.157,-5.144 -16.581,11.746 -14.108,38.745 -13.744,41.999 l 0,92.315 -26.966,-16.594 c -0.454,-0.281 -1.082,-1.402 -1.082,-1.936 l 0,-225.906 c 0,-2.347 -1.903,-4.25 -4.25,-4.25 -2.347,0 -4.25,1.903 -4.25,4.25 l 0,72.636 -18.08,0 c -2.347,0 -4.25,1.903 -4.25,4.25 0,2.347 1.903,4.25 4.25,4.25 l 18.08,0 0,63.188 -17.341,0 c -2.347,0 -4.25,1.903 -4.25,4.25 0,2.347 1.903,4.25 4.25,4.25 l 17.341,0 0,73.083 c 0,3.488 2.156,7.347 5.127,9.175 l 50.882,31.312 c 1.359,0.836 3.073,0.841 4.436,0.012 l 44.472,-27.05 c 1.72,-1.047 3.97,-0.498 5.014,1.22 1.045,1.718 0.497,3.968 -1.222,5.014 l -45.746,27.823 c -1.268,0.771 -2.042,2.148 -2.042,3.631 l 0,15.683 c 0,0.779 0.214,1.543 0.619,2.208 L 349.17,348.7 c 1.045,1.719 0.497,3.968 -1.22,5.013 -1.721,1.046 -3.969,0.498 -5.015,-1.22 L 314.384,305.55 c -0.338,-0.555 -0.799,-1.027 -1.348,-1.376 l -9.014,-5.741 -10e-4,-10e-4 -58.509,-37.263 c -1.435,-0.914 -3.206,-0.848 -4.555,0.007 l -0.006,-0.01 -69.186,43.918 c -0.551,0.35 -1.014,0.823 -1.353,1.38 l -27.998,46.031 c -0.505,0.832 -1.305,1.417 -2.252,1.648 -0.945,0.231 -1.927,0.079 -2.759,-0.427 -1.719,-1.046 -2.267,-3.295 -1.222,-5.013 l 27.614,-45.401 c 0.405,-0.665 0.619,-1.43 0.619,-2.209 l 0,-13.807 c 0,-1.484 -0.774,-2.86 -2.042,-3.631 l -46.579,-28.33 c -0.832,-0.507 -1.418,-1.307 -1.649,-2.254 -0.23,-0.947 -0.079,-1.927 0.427,-2.759 1.045,-1.719 3.295,-2.266 5.013,-1.221 l 44.893,27.305 c 1.364,0.829 3.077,0.825 4.436,-0.012 L 220.48,244.65 c 2.971,-1.828 5.126,-5.686 5.126,-9.175 l 0,-102.078 21.795,0 c 2.347,0 4.25,-1.902 4.25,-4.25 0,-2.347 -1.903,-4.25 -4.25,-4.25 l -21.795,0 0,-65.012 18.961,0 c 2.347,0 4.25,-1.903 4.25,-4.25 0,-2.347 -1.903,-4.25 -4.25,-4.25 l -18.961,0 0,-41.651 c 0,-2.347 -1.903,-4.25 -4.25,-4.25 -2.347,0 -4.25,1.903 -4.25,4.25 l 0,225.739 c 0,0.534 -0.626,1.656 -1.081,1.936 l -27.242,16.765 0,-92.319 c 0.365,-3.256 2.835,-30.253 -13.745,-41.998 -11.771,-8.337 -29.656,-6.607 -53.157,5.144 -22.351,11.175 -47.883,36.88 -70.051,70.524 -23.962,36.366 -41.038,77.638 -48.083,116.211 -10.628,58.213 1.441,108.13 34.906,144.354 0.057,0.061 0.115,0.121 0.176,0.179 1.091,1.049 25.697,24.434 49.593,24.431 1.321,-10e-4 2.642,-0.072 3.954,-0.223 9.853,-1.131 17.941,-6.461 24.04,-15.844 14.744,-22.684 28.125,-30.088 41.064,-37.248 7.237,-4.004 14.721,-8.146 22.018,-14.774 10.547,-9.58 9.491,-26.526 9.29,-28.857 l 0,-79.409 54.439,-34.558 54.171,34.501 0,79.465 c -0.2,2.33 -1.257,19.277 9.289,28.857 7.297,6.628 14.78,10.769 22.017,14.773 12.94,7.16 26.321,14.564 41.066,37.248 6.098,9.382 14.187,14.713 24.04,15.844 1.313,0.151 2.632,0.223 3.954,0.222 23.895,-10e-4 48.502,-23.382 49.593,-24.431 0.061,-0.058 0.119,-0.118 0.176,-0.179 33.464,-36.221 45.533,-86.139 34.899,-144.354 z m -302.123,72.648 c 0.015,0.147 1.37,14.767 -6.527,21.94 -6.564,5.963 -13.293,9.686 -20.418,13.629 -13.207,7.308 -28.176,15.591 -44.076,40.053 -4.713,7.251 -10.558,11.186 -17.868,12.029 C 70.947,474.395 46.399,451.721 44.8,450.218 38.77,443.677 33.659,436.861 29.344,429.87 l 60.102,0 c 2.347,0 4.25,-1.903 4.25,-4.25 0,-2.347 -1.903,-4.25 -4.25,-4.25 l -64.918,0 c -2.495,-4.81 -4.647,-9.682 -6.488,-14.586 l 34.955,0 c 2.347,0 4.25,-1.903 4.25,-4.25 0,-2.347 -1.903,-4.25 -4.25,-4.25 l -37.834,0 C 6.019,368.138 7.692,337.471 12.114,313.261 26.787,232.925 83.745,153.572 125.688,132.602 c 20.176,-10.087 35.538,-12.101 44.424,-5.822 5.001,3.533 7.675,9.311 9.071,15.126 l -19.262,0 c -2.347,0 -4.25,1.903 -4.25,4.25 0,2.347 1.903,4.25 4.25,4.25 l 20.529,0 c 0.419,5.957 -0.116,10.564 -0.129,10.668 -0.022,0.176 -0.033,0.354 -0.033,0.531 l 0,97.798 -13.611,8.376 -42.672,-25.955 c -5.725,-3.48 -13.211,-1.655 -16.692,4.067 -1.686,2.773 -2.191,6.036 -1.423,9.189 0.521,2.138 1.596,4.043 3.092,5.58 l -47.77,0 c -2.347,0 -4.25,1.903 -4.25,4.25 0,2.347 1.903,4.25 4.25,4.25 l 60.979,0 33.726,20.513 0,10.227 -8.867,14.577 -32.59,0 c -2.347,0 -4.25,1.903 -4.25,4.25 0,2.347 1.903,4.25 4.25,4.25 l 27.42,0 -12.959,21.308 c -0.364,0.598 -0.656,1.219 -0.906,1.849 l -50.287,0 c -2.347,0 -4.25,1.903 -4.25,4.25 0,2.347 1.903,4.25 4.25,4.25 l 50.123,0 c 0.899,2.556 2.648,4.828 5.138,6.342 1.927,1.172 4.091,1.773 6.29,1.773 0.964,0 1.936,-0.116 2.897,-0.35 3.153,-0.768 5.818,-2.718 7.503,-5.49 l 27.481,-45.182 3.127,-1.985 0,74.209 c 0,0.14 0.008,0.29 0.022,0.43 z m 261.073,65.839 c -1.534,1.444 -23.723,21.987 -43.539,21.985 -1.028,0 -2.052,-0.055 -3.064,-0.171 -7.316,-0.84 -13.166,-4.776 -17.882,-12.032 -15.901,-24.463 -30.87,-32.745 -44.077,-40.053 -6.424,-3.555 -12.525,-6.948 -18.475,-11.949 l 29,0 c 2.347,0 4.25,-1.902 4.25,-4.25 0,-2.347 -1.903,-4.25 -4.25,-4.25 l -35.446,0 c -2.767,-7.052 -2.034,-15.008 -2.023,-15.109 0.015,-0.146 0.023,-0.293 0.023,-0.439 l 0,-74.248 1.74,1.108 28.037,46.099 c 2.285,3.755 6.295,5.831 10.4,5.831 2.15,0 4.326,-0.569 6.293,-1.765 0.537,-0.327 1.028,-0.699 1.496,-1.092 l 57.923,0 c 2.347,0 4.25,-1.903 4.25,-4.25 0,-2.347 -1.903,-4.25 -4.25,-4.25 l -53.622,0 c 0.16,-2.408 -0.384,-4.886 -1.73,-7.1 l -4.444,-7.306 31.49,0 c 2.347,0 4.25,-1.903 4.25,-4.25 0,-2.347 -1.903,-4.25 -4.25,-4.25 l -36.66,0 -16.549,-27.208 0,-12.103 33.583,-20.426 60.1,0 c 2.347,0 4.25,-1.903 4.25,-4.25 0,-2.347 -1.903,-4.25 -4.25,-4.25 l -47.178,0 c 3.421,-3.884 4.095,-9.699 1.267,-14.349 -3.481,-5.722 -10.969,-7.545 -16.693,-4.065 l -42.252,25.699 -13.201,-8.123 0,-97.796 c 0,-0.174 -0.011,-0.354 -0.033,-0.527 -0.031,-0.249 -2.93,-25.017 10.208,-34.299 8.885,-6.279 24.247,-4.266 44.425,5.821 41.941,20.971 98.9,100.321 113.573,180.657 7.06,38.659 7.113,93.789 -32.69,136.96 z"
         inkscape:connector-curvature="0" />
      <g
         id="g4936" />
      <g
         id="g4938" />
      <g
         id="g4940" />
      <g
         id="g4942" />
      <g
         id="g4944" />
      <g
         id="g4946" />
      <g
         id="g4948" />
      <g
         id="g4950" />
      <g
         id="g4952" />
      <g
         id="g4954" />
      <g
         id="g4956" />
      <g
         id="g4958" />
      <g
         id="g4960" />
      <g
         id="g4962" />
      <g
         id="g4964" />
    </g>
  </g>
</svg>
